<?xml version="1.0" encoding="UTF-8"?>
<svg width="20px" height="20px" viewBox="0 0 20 20" version="1.1" xmlns="http://www.w3.org/2000/svg" xmlns:xlink="http://www.w3.org/1999/xlink">
    <title>Shape</title>
    <g id="Page-1" stroke="none" stroke-width="1" fill="none" fill-rule="evenodd" opacity="0.8">
        <g id="Login---1024" transform="translate(-881.000000, -734.000000)" fill="#FFFFFF" fill-rule="nonzero">
            <g id="Footer" transform="translate(0.000000, 719.000000)">
                <g id="Social-Networks" transform="translate(789.000000, 15.000000)">
                    <path d="M107.760502,0.666666667 L96.2821918,0.666666667 C94.2878995,0.666666667 92.6666667,2.28892694 92.6666667,4.28219178 L92.6666667,15.7616438 C92.6666667,17.7559361 94.2889269,19.3771689 96.2821918,19.3771689 L107.761644,19.3771689 C109.755936,19.3771689 111.377169,17.7549087 111.377169,15.7616438 L111.377169,4.28219178 C111.377055,2.28892694 109.754795,0.666666667 107.760502,0.666666667 Z M108.899543,2.7586758 L109.309018,2.7576484 L109.309018,5.86289954 L106.180936,5.87328767 L106.170548,2.76803653 C106.170548,2.76803653 108.899543,2.7586758 108.899543,2.7586758 Z M102.021918,6.89166667 C104.616895,6.89166667 105.152055,9.32762557 105.152055,10.0228311 C105.152055,11.7469178 103.747032,13.1519406 102.021918,13.1519406 C100.295776,13.1519406 98.8917808,11.7469178 98.8917808,10.0228311 C98.8906393,9.32762557 99.4269406,6.89166667 102.021918,6.89166667 Z M109.326712,15.5350457 C109.326712,16.5234018 108.523402,17.3277397 107.532991,17.3277397 L96.4754566,17.3277397 C95.4860731,17.3277397 94.6817352,16.5244292 94.6817352,15.5350457 L94.6817352,7.93926941 L97.2797945,7.93926941 C97.0386986,8.5326484 96.9025114,9.34326484 96.9025114,10.0229452 C96.9025114,12.8434932 99.1971461,15.1391553 102.018721,15.1391553 C104.840297,15.1391553 107.13379,12.8434932 107.13379,10.0229452 C107.13379,9.34326484 106.997603,8.5326484 106.757534,7.93926941 L109.324429,7.93926941 L109.324429,15.5350457 L109.326712,15.5350457 Z" id="Shape"></path>
                </g>
            </g>
        </g>
    </g>
</svg>