<?xml version="1.0" encoding="UTF-8"?>
<svg width="25px" height="11px" viewBox="0 0 25 11" version="1.1" xmlns="http://www.w3.org/2000/svg" xmlns:xlink="http://www.w3.org/1999/xlink">
    <title>Shape</title>
    <g id="Page-1" stroke="none" stroke-width="1" fill="none" fill-rule="evenodd" opacity="0.8">
        <g id="Login---1024" transform="translate(-924.000000, -739.000000)" fill="#F1F2F2" fill-rule="nonzero">
            <g id="Footer" transform="translate(0.000000, 719.000000)">
                <g id="Social-Networks" transform="translate(789.000000, 15.000000)">
                    <path d="M135.700295,14.2955752 C135.69233,14.3492625 135.653982,14.3876106 135.60413,14.3876106 C135.554277,14.3876106 135.515929,14.3492625 135.50826,14.2943953 L135.333333,12.9852507 L135.50826,11.6542773 C135.515634,11.5988201 135.553982,11.560472 135.60413,11.560472 C135.653687,11.560472 135.692035,11.5988201 135.700295,11.6542773 L135.908555,12.9867257 L135.700295,14.2955752 Z M136.591445,15.0908555 C136.583186,15.1477876 136.541888,15.1876106 136.490855,15.1876106 C136.441298,15.1876106 136.397935,15.1477876 136.39115,15.0908555 L136.155752,12.9849558 L136.39115,10.8318584 C136.39823,10.7764012 136.441298,10.7351032 136.490855,10.7351032 C136.541888,10.7351032 136.583186,10.7755162 136.591445,10.8318584 L136.859292,12.9849558 L136.591445,15.0908555 Z M137.553097,15.4474926 C137.546313,15.5159292 137.494985,15.5646018 137.433333,15.5646018 C137.369617,15.5646018 137.319174,15.5159292 137.312979,15.4474926 L137.089676,12.9867257 L137.312979,10.4324484 C137.318584,10.3631268 137.369617,10.3135693 137.433333,10.3135693 C137.494985,10.3135693 137.546018,10.3631268 137.553097,10.4324484 L137.80649,12.9867257 L137.553097,15.4474926 Z M138.524189,15.5256637 C138.517109,15.6041298 138.455752,15.6634218 138.382891,15.6634218 C138.30826,15.6634218 138.247198,15.6041298 138.241003,15.5256637 L138.030088,12.9867257 L138.241003,10.3622419 C138.247198,10.2831858 138.30826,10.2238938 138.382891,10.2238938 C138.455752,10.2238938 138.517109,10.2831858 138.524189,10.3622419 L138.763422,12.9867257 L138.524189,15.5256637 Z M139.50059,15.5460177 C139.495575,15.6371681 139.424484,15.7047198 139.340413,15.7047198 C139.253687,15.7047198 139.184956,15.6371681 139.179056,15.5460177 L138.979646,12.9864307 L139.179056,10.5516224 C139.185251,10.4610619 139.253687,10.3935103 139.340413,10.3935103 C139.425959,10.3935103 139.495575,10.4610619 139.50059,10.5504425 L139.726549,12.9864307 L139.50059,15.5460177 Z M140.486431,15.5474926 L140.486431,15.5460177 C140.480531,15.6469027 140.40059,15.7265487 140.304425,15.7265487 C140.207965,15.7265487 140.128024,15.6466077 140.122419,15.5474926 L139.936283,12.9879056 L140.122419,9.02654867 C140.128024,8.92566372 140.207965,8.8460177 140.304425,8.8460177 C140.400885,8.8460177 140.480826,8.9259587 140.486431,9.02507375 L140.697345,12.9879056 L140.486431,15.5474926 Z M141.464897,15.5460177 L141.464897,15.5445428 C141.458997,15.6560472 141.370796,15.7448378 141.261652,15.7448378 C141.154572,15.7448378 141.066077,15.6560472 141.060767,15.5445428 L140.884956,13.0014749 L141.060767,8.1339233 C141.066077,8.02241888 141.154572,7.93421829 141.261652,7.93421829 C141.370796,7.93421829 141.458997,8.02241888 141.464897,8.1339233 L141.662832,13.0014749 L141.464897,15.5460177 Z M142.479941,15.5067847 L142.479941,15.5053097 C142.475516,15.6294985 142.377876,15.7259587 142.257817,15.7259587 C142.137758,15.7259587 142.040118,15.6294985 142.035693,15.5067847 L141.872566,12.9896755 C141.872566,12.9896755 142.035693,7.71651917 142.035693,7.71504425 C142.040413,7.59233038 142.137758,7.49410029 142.257817,7.49410029 C142.377876,7.49410029 142.475811,7.59233038 142.479941,7.71504425 L142.664307,12.9896755 L142.479941,15.5067847 Z M143.489086,15.4899705 C143.484366,15.6250737 143.378466,15.7309735 143.246608,15.7309735 C143.114454,15.7309735 143.008555,15.6250737 143.003835,15.4911504 L142.851622,12.9890855 L143.003835,7.53834808 C143.008555,7.40265487 143.114454,7.29705015 143.246608,7.29705015 C143.378466,7.29705015 143.484661,7.40265487 143.489086,7.53834808 L143.658112,12.9890855 L143.489086,15.4899705 Z M144.50472,15.4678466 L144.50472,15.4663717 C144.5,15.6123894 144.385841,15.7283186 144.241003,15.7283186 C144.09823,15.7283186 143.981711,15.6123894 143.979056,15.4678466 L143.839233,12.9896755 L143.977581,7.67817109 C143.981711,7.5300885 144.097935,7.41563422 144.241003,7.41563422 C144.385841,7.41563422 144.5,7.5300885 144.50472,7.67817109 L144.661652,12.9896755 L144.50472,15.4678466 Z M145.528614,15.4530973 L145.528614,15.4510324 C145.526254,15.6100295 145.40059,15.7324484 145.245428,15.7324484 C145.089086,15.7324484 144.965192,15.6100295 144.960472,15.4530973 L144.834218,12.9893805 L144.960767,7.87227139 C144.965487,7.71356932 145.089381,7.58938053 145.245723,7.58938053 C145.400885,7.58938053 145.526549,7.71356932 145.528909,7.87227139 L145.671976,12.9908555 L145.528614,15.4530973 Z M146.573156,15.1932153 L146.560472,15.4345133 C146.558997,15.5185841 146.523599,15.5946903 146.469617,15.6495575 C146.414159,15.7035398 146.338053,15.7380531 146.257522,15.7380531 C146.163717,15.7380531 146.081121,15.6949853 146.024484,15.6271386 C145.982596,15.5778761 145.956637,15.5141593 145.953687,15.4471976 C145.952802,15.4442478 145.952802,15.440413 145.952802,15.4362832 C145.952802,15.4362832 145.836283,12.9920354 145.836283,12.9879056 L145.951327,6.95752212 L145.952802,6.89970501 C145.953687,6.79410029 146.009735,6.7 146.09351,6.6460177 C146.140413,6.61474926 146.19587,6.59646018 146.257817,6.59646018 C146.318584,6.59646018 146.376106,6.61533923 146.424189,6.64867257 C146.5059,6.70324484 146.559292,6.79498525 146.560767,6.9 L146.688791,12.9908555 L146.573156,15.1932153 Z M147.588201,15.4029499 L147.588201,15.4 C147.586136,15.5781711 147.440118,15.7233038 147.263717,15.7233038 C147.086726,15.7233038 146.941003,15.5781711 146.939233,15.4014749 L146.872271,14.2126844 L146.80649,12.9920354 L146.939233,6.38259587 L146.939233,6.34926254 C146.939528,6.24896755 146.986726,6.15929204 147.059587,6.09882006 C147.115339,6.05309735 147.187021,6.02536873 147.263717,6.02536873 C147.324779,6.02536873 147.381416,6.04218289 147.429794,6.07050147 C147.522124,6.12831858 147.586726,6.23067847 147.589676,6.34778761 L147.733333,12.9917404 L147.588201,15.4029499 Z M156.358997,15.7297935 L148.184366,15.7297935 C148.007965,15.7117994 147.868437,15.5713864 147.865487,15.3905605 L147.865487,6.03244838 C147.868437,5.86017699 147.927729,5.77138643 148.149558,5.68613569 C148.722124,5.46430678 149.370501,5.33333333 150.036873,5.33333333 C152.755162,5.33333333 154.982596,7.41858407 155.218879,10.0749263 C155.568732,9.92890855 155.955162,9.84572271 156.358997,9.84572271 C157.986726,9.84572271 159.30649,11.1660767 159.30649,12.7949853 C159.30649,14.4235988 157.986726,15.7297935 156.358997,15.7297935 L156.358997,15.7297935 Z" id="Shape"></path>
                </g>
            </g>
        </g>
    </g>
</svg>