<?xml version="1.0" encoding="UTF-8"?>
<svg width="21px" height="20px" viewBox="0 0 21 20" version="1.1" xmlns="http://www.w3.org/2000/svg" xmlns:xlink="http://www.w3.org/1999/xlink">
    <title>Shape</title>
    <g id="Page-1" stroke="none" stroke-width="1" fill="none" fill-rule="evenodd" opacity="0.8">
        <g id="Login---1024" transform="translate(-973.000000, -734.000000)" fill="#FFFFFF" fill-rule="nonzero">
            <g id="Footer" transform="translate(0.000000, 719.000000)">
                <g id="Social-Networks" transform="translate(789.000000, 15.000000)">
                    <path d="M194.662799,0 C189.150924,0 184.666667,4.48464844 184.666667,9.99691406 C184.666667,15.5126563 189.150924,20 194.662799,20 C200.178932,20 204.666667,15.5126563 204.666667,9.99691406 C204.666667,4.48464844 200.178932,0 194.662799,0 Z M199.063464,15.6870312 C198.977643,15.8469141 198.803464,15.9502344 198.619674,15.9502344 C198.528581,15.9502344 198.448542,15.9297656 198.368464,15.8864453 C196.765299,15.0052734 194.951003,14.5394922 193.121589,14.5394922 C192.016354,14.5394922 190.931276,14.7030469 189.897526,15.0253125 C189.847174,15.0405859 189.795378,15.0484766 189.743542,15.0484766 C189.517174,15.0484766 189.320729,14.9043359 189.254831,14.6903125 C189.165846,14.3978516 189.349831,13.74875 189.589909,13.6701953 C190.748854,13.3174219 191.937135,13.1385156 193.12151,13.1385156 C195.133034,13.1385156 197.118893,13.6482812 198.86526,14.6132812 C198.969128,14.6698828 199.063542,14.8570312 199.105924,15.09 C199.148307,15.3228906 199.131471,15.5623437 199.063464,15.6870312 Z M200.310612,11.9874609 C200.121432,12.3576953 199.900299,12.6064062 199.76026,12.6064062 C199.660964,12.6064062 199.565182,12.5826172 199.469753,12.5349219 C197.501276,11.5098047 195.365495,10.9900781 193.121471,10.9900781 C191.873268,10.9900781 190.648698,11.1542187 189.482839,11.4776172 C189.42862,11.4923047 189.372956,11.4997266 189.317526,11.4997266 C189.037057,11.4998047 188.789909,11.3104297 188.716745,11.0398437 C188.622956,10.688125 188.837057,10.0731641 189.153737,9.98699219 C190.445456,9.63585937 191.780417,9.4578125 193.121471,9.4578125 C195.532292,9.4578125 197.926276,10.0411719 200.04612,11.1455469 C200.194714,11.2209375 200.304206,11.3489062 200.354401,11.5055469 C200.405417,11.664375 200.390026,11.835 200.310612,11.9874609 Z M201.642604,8.42890625 C201.522878,8.66859375 201.264128,8.92660156 200.978932,8.92660156 C200.868971,8.92660156 200.756042,8.90082031 200.656042,8.85386719 C198.307253,7.67871094 195.772292,7.08285156 193.121628,7.08285156 C191.759479,7.08285156 190.387018,7.25039062 189.042292,7.58070312 C188.983073,7.5953125 188.922565,7.60273437 188.86237,7.60273437 C188.523424,7.60273437 188.229714,7.37375 188.148151,7.04628906 C188.045924,6.63167969 188.305339,6.15003906 188.681003,6.05539062 C190.142057,5.69652344 191.636081,5.51453125 193.121667,5.51453125 C195.997487,5.51453125 198.751628,6.16109375 201.30862,7.43667969 C201.486198,7.52429687 201.618581,7.67550781 201.681549,7.86238281 C201.744362,8.04949219 201.730456,8.2509375 201.642604,8.42890625 Z" id="Shape"></path>
                </g>
            </g>
        </g>
    </g>
</svg>