<?xml version="1.0" encoding="UTF-8"?>
<svg width="20px" height="17px" viewBox="0 0 20 17" version="1.1" xmlns="http://www.w3.org/2000/svg" xmlns:xlink="http://www.w3.org/1999/xlink">
    <title>Shape</title>
    <g id="Page-1" stroke="none" stroke-width="1" fill="none" fill-rule="evenodd" opacity="0.8">
        <g id="Login---1024" transform="translate(-829.000000, -736.000000)" fill="#FFFFFF" fill-rule="nonzero">
            <g id="Footer" transform="translate(0.000000, 719.000000)">
                <g id="Social-Networks" transform="translate(789.000000, 15.000000)">
                    <path d="M59.7506849,4.50924658 C59.0243151,4.82305936 58.2426941,5.03401826 57.4228311,5.12968037 C58.2605023,4.64223744 58.9027397,3.87214612 59.205137,2.95251142 C58.4215753,3.40456621 57.5547945,3.73196347 56.6309361,3.90753425 C55.8920091,3.14372146 54.8392694,2.66666667 53.6732877,2.66666667 C51.4368721,2.66666667 49.6223744,4.42614155 49.6223744,6.59805936 C49.6223744,6.90673516 49.6577626,7.20707763 49.7272831,7.49497717 C46.3601598,7.33082192 43.3734018,5.76461187 41.3760274,3.38584475 C41.0268265,3.96678082 40.8272831,4.64121005 40.8272831,5.36244292 C40.8272831,6.72591324 41.5422374,7.93139269 42.6293379,8.63504566 C41.9642694,8.61426941 41.3406393,8.43858447 40.7930365,8.14246575 L40.7930365,8.1923516 C40.7930365,10.0982877 42.189726,11.6873288 44.0437215,12.0489726 C43.7038813,12.1383562 43.346347,12.1872146 42.9763699,12.1872146 C42.7155251,12.1872146 42.4619863,12.1633562 42.2146119,12.1165525 C42.7300228,13.6795662 44.2265982,14.8164384 46.0005708,14.8477169 C44.613242,15.9035388 42.86621,16.5312785 40.9675799,16.5312785 C40.6401826,16.5312785 40.3180365,16.5125571 40,16.4762557 C41.7947489,17.5923516 43.9231735,18.2439498 46.2125571,18.2439498 C53.6659817,18.2439498 57.741895,12.2496575 57.741895,7.05342466 L57.7304795,6.54417808 C58.5202055,5.99121005 59.2071918,5.29908676 59.7506849,4.50924658 Z" id="Shape"></path>
                </g>
            </g>
        </g>
    </g>
</svg>