<?xml version="1.0" encoding="UTF-8"?>
<svg width="110px" height="87px" viewBox="0 0 110 87" version="1.1" xmlns="http://www.w3.org/2000/svg" xmlns:xlink="http://www.w3.org/1999/xlink">
    <title>noun_955318_cc copy 2</title>
    <defs>
        <linearGradient x1="283.579904%" y1="-180.457064%" x2="5.85408157%" y2="97.2608025%" id="linearGradient-1">
            <stop stop-color="#5F46A2" offset="0%"></stop>
            <stop stop-color="#436FE0" offset="47.5562224%"></stop>
            <stop stop-color="#FFFFFF" offset="100%"></stop>
        </linearGradient>
        <linearGradient x1="269.883236%" y1="-193.814167%" x2="8.44271164%" y2="100%" id="linearGradient-2">
            <stop stop-color="#5F46A2" offset="0%"></stop>
            <stop stop-color="#436FE0" offset="47.5562224%"></stop>
            <stop stop-color="#FFFFFF" offset="100%"></stop>
        </linearGradient>
        <linearGradient x1="283.579904%" y1="-193.814167%" x2="5.85408157%" y2="100%" id="linearGradient-3">
            <stop stop-color="#5F46A2" offset="0%"></stop>
            <stop stop-color="#436FE0" offset="47.5562224%"></stop>
            <stop stop-color="#FFFFFF" offset="100%"></stop>
        </linearGradient>
        <linearGradient x1="271.755017%" y1="-193.814167%" x2="8.08895055%" y2="100%" id="linearGradient-4">
            <stop stop-color="#5F46A2" offset="0%"></stop>
            <stop stop-color="#436FE0" offset="47.5562224%"></stop>
            <stop stop-color="#FFFFFF" offset="100%"></stop>
        </linearGradient>
    </defs>
    <g id="Page-1" stroke="none" stroke-width="1" fill="none" fill-rule="evenodd" opacity="0.8">
        <g id="Login---1024" transform="translate(-201.000000, -286.000000)" fill-rule="nonzero">
            <g id="Logo" transform="translate(129.000000, 286.000000)">
                <g id="noun_955318_cc-copy-2" transform="translate(72.372881, 0.000000)">
                    <path d="M16.5404052,79.5092281 C14.910567,77.8797724 16.0025586,72.2255611 20.7290895,63.7849805 C19.3854166,61.8140071 18.2234643,59.7251653 17.257534,57.5441651 C10.1840361,68.9829442 7.26662564,79.0855696 12.139842,83.9739367 C13.924075,85.6467269 16.3145496,86.5179269 18.7569852,86.3855312 C24.2006449,86.3855312 31.5023202,83.2895653 39.4070357,78.2382526 C37.0779132,77.4143431 34.8388886,76.3551508 32.7246989,75.0771086 C24.0213627,80.0143594 18.1702435,81.1386838 16.5404052,79.5092281 Z" id="Shape" fill="url(#linearGradient-1)"></path>
                    <path d="M70.71966,5.43162557 L69.0859747,6.33087627 C71.2821647,7.35188441 73.3771318,8.57812632 75.3429893,9.99327915 C80.8811823,7.09932688 84.5569741,6.2327762 86.7787861,6.2327762 C87.6020951,6.14731553 88.4279974,6.3685097 89.0986192,6.85407668 C90.0624935,7.81872744 90.5199254,11.9879807 85.8312486,20.9968378 C87.1356494,23.1196566 88.2299583,25.364797 89.0986192,27.7003431 C89.6050616,26.8828424 90.0788303,26.0653418 90.5199254,25.2641912 C94.1303698,18.724186 95.9437604,13.3123318 95.9437604,9.12672847 C96.0992875,6.67538726 95.249775,4.26649627 93.5912536,2.45592322 C89.5070405,-1.63157999 81.6163407,-0.60152918 70.71966,5.43162557 Z" id="Shape" fill="url(#linearGradient-2)"></path>
                    <path d="M86.20306,33.0959838 C86.20306,32.9980452 86.20306,32.9001066 86.20306,32.802168 C85.9416964,31.8064591 85.6313272,30.8433963 85.2882874,29.8803335 C85.0269238,29.1621172 84.7328898,28.4439009 84.4225205,27.7583308 C84.1121512,27.0727606 83.7691115,26.3545443 83.4097366,25.6852973 C83.3563168,25.567761 83.2963263,25.4533187 83.2300491,25.3425123 C82.7332337,24.3744595 82.1880384,23.4319718 81.5965266,22.5186163 C80.3660436,20.6983677 78.9658566,18.998622 77.414709,17.4421328 C76.6468567,16.6610372 75.8341668,15.925254 74.9807604,15.2385146 C74.1400492,14.5336666 73.2621327,13.8743558 72.3507892,13.2634197 L72.3507892,13.2634197 C72.0077495,13.0185733 71.6647098,12.7900499 71.3053348,12.5778496 L70.9622951,12.3819724 L70.6355906,12.1860953 C70.2762156,11.9575719 69.9168407,11.7453716 69.5411305,11.5494944 L69.5411305,11.5494944 L68.4466704,10.978186 C67.6952501,10.6027548 66.9438297,10.2599697 66.1597389,9.94983083 L64.9999379,9.49278409 L64.7549096,9.49278409 C63.7911313,9.14999903 62.7946825,8.83986017 61.7818986,8.5786906 C60.7691146,8.31752103 59.5766432,8.07267456 58.5148536,7.89312048 C56.674146,7.58350588 54.8111373,7.42518581 52.9445418,7.41973475 C51.7276226,7.41856303 50.511551,7.48395328 49.3017867,7.61562782 C48.9750822,7.61562782 48.6483776,7.61562782 48.3216731,7.7462126 C47.9949686,7.87679739 47.6029232,7.7462126 47.2598835,7.89312048 C46.9168438,8.04002837 46.1654234,8.08899766 45.626361,8.21958244 C45.2728337,8.27055564 44.9234435,8.34692801 44.5809066,8.44810582 L43.9928385,8.5950137 L42.8167023,8.93779876 C41.7276873,9.27514278 40.6386723,9.66689713 39.5496573,10.1130618 C39.1086062,10.2926159 38.6838904,10.4884931 38.2428393,10.7006933 C37.8017882,10.9128936 37.5894303,11.0108322 37.2627258,11.1903863 C36.9360213,11.3699404 36.5439759,11.5494944 36.2009362,11.7453716 L35.7598851,12.0065412 C35.4168454,12.1860953 35.0738056,12.3982955 34.7471011,12.6104958 L34.1753683,12.9859271 C33.8486638,13.1818042 33.505624,13.4103276 33.1952547,13.638851 C31.9642076,14.5026352 30.7910127,15.4459469 29.6831814,16.4627469 L28.5723861,17.5400714 C28.1476702,17.964472 27.7229544,18.4051956 27.330909,18.8622423 L27.2002272,19.0091502 C26.8081818,19.4498739 26.4324716,19.9069206 26.0730966,20.3639674 C25.2874458,21.3939137 24.5777178,22.4795369 23.9495174,23.6122639 C23.7208242,23.9876951 23.4921311,24.3631264 23.2797731,24.7385576 C23.0674152,25.1139889 22.8713925,25.4567739 22.6753698,25.8158821 C22.250654,26.6157139 21.8586086,27.4481919 21.5155688,28.2643468 L21.0255121,29.4885791 C20.8458246,29.961949 20.6661371,30.4516419 20.5027849,30.9250118 C20.1924156,31.9043976 19.8983816,32.8837835 19.6696884,33.8958156 C19.5716771,34.3202162 19.4736657,34.7609398 19.3919896,35.2179865 C19.3490507,35.3559771 19.3216558,35.4983248 19.3103135,35.6423871 C19.3103135,36.0667876 19.1469612,36.5075113 19.0979555,36.9482349 C19.0203175,37.3967466 18.9657949,37.8489486 18.9346033,38.3030521 C18.9346033,38.8580374 18.8202567,39.4130227 18.8039215,39.9353619 C18.7875863,40.457701 18.8039215,41.1106249 18.8039215,41.6982565 C18.8039215,42.285888 18.8039215,42.8735195 18.8039215,43.461151 C18.8491212,44.5216046 18.9527345,45.5787658 19.1142908,46.6278321 C19.1473477,46.9402783 19.1964178,47.250825 19.2613078,47.5582486 C19.2613078,47.9010337 19.3756544,48.2601419 19.4573305,48.6029269 C19.5390066,48.945712 19.6696884,49.614959 19.8003702,50.120975 C19.931052,50.6269911 20.0453986,51.0350685 20.1760804,51.4757922 C20.3067622,51.9165158 20.3721031,52.1287161 20.4864497,52.455178 L20.584461,52.7326707 C20.584461,52.8632555 20.584461,52.9938403 20.6988076,53.108102 C20.8131542,53.2223636 20.9111655,53.6957335 21.0418473,53.9732262 C21.375494,54.8744367 21.7571957,55.7571478 22.1853131,56.617568 C22.3813358,57.0419686 22.5936937,57.4663691 22.8223868,57.8744466 L22.9694039,58.1519392 C23.1817618,58.5273705 23.3941197,58.9191248 23.6228129,59.278233 C23.6547816,59.3469199 23.6930613,59.4124935 23.7371594,59.4741102 C23.9658526,59.8495414 24.1945457,60.2086496 24.4395741,60.5677577 C24.6846025,60.9268659 25.1909945,61.6940515 25.5993751,62.2000675 C26.0077557,62.7060836 26.2364489,63.0325455 26.5794886,63.440623 C26.9225283,63.8487004 27.2819033,64.273101 27.6576135,64.6811784 C28.0333236,65.0892559 28.3436929,65.4157179 28.7030679,65.774826 L28.8664201,65.9543801 C29.6015052,66.6889195 30.3692608,67.3744896 31.1696868,68.0437366 L32.5091753,69.0884149 C32.9502264,69.4312 33.4076127,69.7413388 33.864999,70.0514777 C34.3223853,70.3616165 34.7797716,70.6554323 35.2534931,70.932925 C36.0049135,71.3899717 36.772669,71.8143723 37.5567598,72.2061266 L37.5567598,72.2061266 L37.7364473,72.2061266 L38.0304814,72.3530345 L38.438862,72.5489117 C38.7655665,72.7121427 39.1086062,72.8590505 39.4353107,72.9896353 C39.7620152,73.1202201 40.2684072,73.3487435 40.693123,73.5119745 L42.065282,74.0016674 C42.8983784,74.2954832 43.6988045,74.5403296 44.6135771,74.7525299 C44.7835953,74.8078486 44.9587004,74.8461244 45.1363043,74.8667916 L46.7698268,75.1932536 C47.8486518,75.4076588 48.9397705,75.5548505 50.0368718,75.6339772 L50.5105933,75.6339772 L51.3110193,75.8461775 L52.3074681,75.8461775 L52.9445418,75.8461775 L54.7087461,75.8461775 C55.2641438,75.8461775 55.8195414,75.8461775 56.3422686,75.7155927 C56.7968861,75.686313 57.2495248,75.6318187 57.6980923,75.5523617 L58.9722399,75.3564845 C59.1329934,75.3395325 59.2916737,75.3067264 59.4459614,75.258546 L60.7527794,74.9810533 C61.7907163,74.7861479 62.8161867,74.5299706 63.8238017,74.2138677 L65.2613015,73.6915285 L66.3557616,73.267128 L66.453773,73.267128 C67.2233636,72.9533677 67.9758321,72.5992072 68.708034,72.2061266 C68.7454326,72.2165738 68.784982,72.2165738 68.8223806,72.2061266 C69.1921168,72.0298584 69.5520197,71.8336935 69.9005054,71.6184951 C70.1945395,71.4715872 70.4885735,71.2920331 70.7826076,71.1124791 C71.0766416,70.932925 71.6483745,70.5738168 72.0730904,70.2963242 C74.4100381,68.7314351 76.5443668,66.8837878 78.4274929,64.7954401 C78.7868679,64.4200089 79.1299076,64.0119314 79.4566121,63.6201771 C79.7833166,63.2284227 80.1426916,62.771376 80.4693961,62.3306523 C80.7961006,61.8899287 81.1064698,61.4655281 81.4005039,61.0248045 L81.8088845,60.4045268 C82.2662708,59.7026336 82.7073219,58.9680941 83.1157025,58.2172316 C83.1157025,58.2172316 83.1157025,58.2172316 83.1157025,58.2172316 C83.3770661,57.7438618 83.6220945,57.2541689 83.8671229,56.7644759 L83.8671229,56.7644759 C84.1121512,56.274783 84.3245092,55.78509 84.5368671,55.2953971 C85.7374298,52.4752983 86.5453796,49.5040308 86.9381452,46.4646011 C86.9381452,46.0238774 87.0524918,45.5668307 87.1014974,45.0934608 C87.1505031,44.620091 87.1995088,44.0324595 87.215844,43.461151 C87.2321792,42.8898426 87.215844,42.2042725 87.215844,41.5676717 C87.2183588,39.8191095 87.0872963,38.0729064 86.8237986,36.3442803 C86.709452,35.3159251 86.4807589,34.1896314 86.20306,33.0959838 Z M81.0574642,41.6656103 C81.0574642,42.4980883 81.0574642,43.2979201 80.9431176,44.1467212 C80.9431176,44.3915676 80.9431176,44.6364141 80.9431176,44.8812606 C80.8766084,45.5890699 80.7675095,46.2922354 80.6164131,46.9869402 C80.6164131,47.3134022 80.5510722,47.6398641 80.4203904,47.9663261 C80.4274735,47.9985887 80.4274735,48.0320021 80.4203904,48.0642647 C80.3561129,48.3948288 80.2743218,48.7217506 80.175362,49.0436506 C80.0773507,49.3864356 79.9956745,49.7292207 79.881328,50.0556826 C79.573967,51.0599019 79.1973553,52.0416379 78.7541974,52.9938403 C78.6238818,53.316924 78.4766617,53.6329398 78.3131463,53.94058 C78.1497941,54.2996881 77.9701066,54.6587963 77.7740839,55.0015813 C77.5780612,55.3443664 77.1206749,56.1278751 76.7776352,56.6338911 C76.2272032,57.5198044 75.6216067,58.3702811 74.9644252,59.1802944 C74.7520673,59.4577871 74.5233741,59.7189567 74.294681,59.9801262 C74.0659878,60.2412958 73.8372947,60.5024654 73.5922663,60.7473118 C73.3472379,60.9921583 73.1185448,61.2533279 72.8735164,61.4981743 C72.628488,61.7430208 72.3671244,62.0041904 72.1057608,62.2327137 C71.8598642,62.4783201 71.5979249,62.7073469 71.32167,62.9182839 C71.066454,63.1548563 70.7992964,63.3782305 70.521244,63.5875309 C70.2577413,63.8176657 69.9794477,64.0303205 69.6881475,64.2241317 C69.1164146,64.6322092 68.5446818,65.0239635 67.9566137,65.3993948 L67.0091706,65.9543801 L66.0780628,66.4603961 C65.1290524,66.9671652 64.1466759,67.4089064 63.1377223,67.7825671 C61.9445049,68.2390567 60.7220827,68.6153269 59.4786319,68.9088608 L58.2208195,69.1700304 C57.4706218,69.320979 56.7125775,69.4299691 55.9502232,69.4964924 L55.1497972,69.4964924 C54.9105087,69.5132866 54.6703359,69.5132866 54.4310473,69.4964924 L53.1405645,69.4964924 L51.7030647,69.4964924 L51.2783489,69.4964924 L50.8046274,69.4964924 L50.5922694,69.4964924 L49.399798,69.3659076 C48.2973828,69.2293203 47.2057565,69.0166112 46.132753,68.7293067 L44.7769293,68.4191679 L43.6007931,68.0274135 L43.4701113,68.0274135 L42.1632933,67.5213975 C35.7826218,64.7857102 30.6314238,59.8010073 27.6902839,53.5161794 C27.0203003,52.0853777 26.4738076,50.6000212 26.0567614,49.0762968 C25.9151894,48.5321935 25.7845076,47.9880902 25.664716,47.443987 C25.664716,47.3134022 25.664716,47.1828174 25.664716,47.0522326 C25.664716,46.9216478 25.5667046,46.5462166 25.5340342,46.3013701 C25.5013637,46.0565236 25.4360228,45.7463848 25.4033524,45.4688921 L25.1746592,44.5221524 C25.0759875,43.5731733 25.0269152,42.6196975 25.0276422,41.6656103 C25.0276422,41.2248866 25.0276422,40.8004861 25.0276422,40.3760855 C25.0114057,40.136955 25.0114057,39.8969998 25.0276422,39.6578692 C25.0276422,39.3803765 25.0276422,39.119207 25.0276422,38.8417143 C25.0196556,38.7985519 25.0196556,38.754292 25.0276422,38.7111295 C25.0276422,38.3193752 25.0276422,37.9439439 25.1746592,37.5685127 C25.2119528,37.2340255 25.2664759,36.9016816 25.3380115,36.5728037 C25.3998995,36.1489981 25.4871775,35.7292845 25.5993751,35.3159251 C25.5993751,34.9404939 25.7790626,34.5650626 25.8770739,34.1896314 C25.8698444,34.0972749 25.8698444,34.0044952 25.8770739,33.9121387 C25.9750853,33.5693536 26.0730966,33.2428917 26.1874432,32.9164297 C26.1823906,32.8621365 26.1823906,32.8074919 26.1874432,32.7531987 C26.3017898,32.3777675 26.4488068,32.0023362 26.5958238,31.626905 C26.8408522,30.9739811 27.118551,30.3210571 27.4289203,29.6844563 C27.5104254,29.4755237 27.6087593,29.2735429 27.7229544,29.0805017 C28.4224951,27.6843481 29.2423519,26.3517044 30.1732381,25.0976658 C30.3548854,24.8312478 30.5512108,24.5751243 30.7613062,24.3304802 L30.8756528,24.1835723 C31.1238883,23.8527693 31.3911472,23.5366568 31.6760788,23.2368326 C32.3725697,22.4126962 33.1258234,21.6381844 33.9303399,20.9189527 L34.9431238,20.0375054 L36.0049135,19.2050274 C36.3642884,18.9438578 36.7236634,18.6826883 37.0993735,18.4378418 C37.4750837,18.1929953 37.8507939,17.9318258 38.2265041,17.7033024 C39.3904107,16.999289 40.6021748,16.3774937 41.852924,15.8424692 L43.1434068,15.4507149 C43.6824692,15.2385146 44.2215317,15.0589605 44.7769293,14.8794064 L46.0837473,14.5202983 C46.5084632,14.4060366 46.933179,14.308098 47.3742301,14.2264825 C48.7258664,13.9466464 50.0962827,13.766606 51.4743716,13.6878203 C51.9970988,13.6878203 52.5361612,13.6878203 53.1078941,13.6878203 C54.7513196,13.6878203 56.3914168,13.8354805 58.0084616,14.1285439 C60.5326471,14.5733023 62.9803866,15.3757847 65.2776368,16.5117162 C71.7080093,19.6365884 76.7031644,25.0950711 79.2442542,31.7738129 C80.2284192,34.3531847 80.8176683,37.0661205 80.9921233,39.8211002 C81.0411289,40.4250548 81.0574642,41.0453325 81.0574642,41.6656103 Z" id="Shape" fill="url(#linearGradient-3)"></path>
                    <path d="M56.1349182,29.1545518 C56.1352919,27.4658626 54.7731261,26.0868984 53.0697003,26.0515131 L53.0697003,26.0515131 C51.4561201,26.0457931 50.1082892,27.2685805 49.9716994,28.8621207 C49.9554967,28.9589364 49.9554967,29.0577362 49.9716994,29.1545518 C49.8869038,30.3137758 50.4628282,31.4227724 51.463948,32.0280167 C52.4650678,32.633261 53.7235075,32.633261 54.7246273,32.0280167 C55.7257471,31.4227724 56.3016715,30.3137758 56.2168759,29.1545518 L56.1349182,29.1545518 Z" id="Shape" fill="url(#linearGradient-4)"></path>
                    <path d="M31.2060259,41.7153976 C30.6636888,41.7129805 30.131199,41.8608371 29.6672002,42.1427138 C28.6632784,42.6640517 28.0320878,43.703226 28.0301091,44.8379045 C28.0226505,46.2780536 29.0073014,47.5323962 30.4038721,47.8617769 L30.4038721,47.8617769 C30.9380767,48.0206763 31.5067161,48.0206763 32.0409207,47.8617769 C33.2765726,47.5228996 34.1714094,46.4475462 34.2836773,45.1665862 C34.2996581,45.0631219 34.2996581,44.9578029 34.2836773,44.8543385 C34.283888,43.1398385 32.9136799,41.7423568 31.2060259,41.7153976 L31.2060259,41.7153976 Z" id="Shape" fill="url(#linearGradient-3)"></path>
                    <path d="M60.2276952,54.2288545 L59.6172127,54.0816222 L59.2047246,54.0816222 C57.8581648,54.0885992 56.6648505,54.9431048 56.2348099,56.2083115 C56.092072,56.6179149 56.0359079,57.0522675 56.0698146,57.484325 C56.1693861,58.7168805 57.0000312,59.7720899 58.1817539,60.1672254 C58.5105093,60.2823289 58.856098,60.3431213 59.2047246,60.347176 C60.7330872,60.3324402 62.0304531,59.232457 62.2823852,57.737754 C62.5343172,56.2430511 61.6681773,54.7845878 60.2276952,54.277932 L60.2276952,54.2288545 Z" id="Shape" fill="url(#linearGradient-3)"></path>
                    <path d="M43.737298,26.2160051 L43.9018617,26.2160051 C45.3982702,26.1547628 46.6306949,25.0176949 46.8146409,23.5285971 C46.8308136,23.3806549 46.8308136,23.2313858 46.8146409,23.0834436 C46.8123392,21.622021 45.8017074,20.3563679 44.3790968,20.033318 C44.1525855,19.979599 43.9206973,19.9519417 43.6879288,19.9508423 C42.4481391,19.9446209 41.3230491,20.6766496 40.8245188,21.8139319 L40.8245188,21.8139319 C40.6537529,22.2154731 40.5642556,22.6469848 40.5612167,23.0834436 C40.5611122,23.9228918 40.8973011,24.7272595 41.4943946,25.3161714 C42.0914882,25.9050834 42.8995217,26.2292595 43.737298,26.2160051 L43.737298,26.2160051 Z" id="Shape" fill="url(#linearGradient-3)"></path>
                    <path d="M43.7104654,47.8160684 C41.1733496,47.809457 38.8826707,49.3335513 37.908692,51.6762775 C36.9347133,54.0190036 37.4697164,56.7178636 39.2637343,58.5118815 C41.0577522,60.3058994 43.7566121,60.8409025 46.0993383,59.8669237 C48.4420645,58.892945 49.9661588,56.6022662 49.9595473,54.0651504 C49.9505126,50.6176299 47.1579859,47.8251031 43.7104654,47.8160684 L43.7104654,47.8160684 Z" id="Shape" fill="url(#linearGradient-3)"></path>
                    <path d="M42.1276051,41.7153976 C44.7191395,41.7063835 46.8177563,39.6077667 46.8267704,37.0162323 C46.8267704,34.4209549 44.7228825,32.3170669 42.1276051,32.3170669 C39.5323277,32.3170669 37.4284398,34.4209549 37.4284398,37.0162323 C37.4284398,39.6115096 39.5323277,41.7153976 42.1276051,41.7153976 L42.1276051,41.7153976 Z" id="Shape" fill="url(#linearGradient-3)"></path>
                    <circle id="Oval" fill="url(#linearGradient-3)" cx="57.6266066" cy="43.2817861" r="4.69916534"></circle>
                    <circle id="Oval" fill="url(#linearGradient-3)" cx="104.453377" cy="37.0162323" r="4.69916534"></circle>
                    <circle id="Oval" fill="url(#linearGradient-3)" cx="4.69916534" cy="49.3824569" r="4.69916534"></circle>
                    <circle id="Oval" fill="url(#linearGradient-3)" cx="10.9647191" cy="8.9861232" r="4.69916534"></circle>
                </g>
            </g>
        </g>
    </g>
</svg>